<?xml version="1.0" encoding="utf-8"?>
<!-- Generator: Adobe Illustrator 21.0.2, SVG Export Plug-In . SVG Version: 6.00 Build 0)  -->
<svg version="1.1" id="Layer_1" xmlns="http://www.w3.org/2000/svg" xmlns:xlink="http://www.w3.org/1999/xlink" x="0px" y="0px"
	 viewBox="0 0 56 56" style="enable-background:new 0 0 56 56;" xml:space="preserve">
<style type="text/css">
	.st0{fill:#FFFFFF;}
</style>
<g>
	<path d="M50.9,31.3c3.2-0.2,4.1-2.5,4.1-2.5c-3.9-1.5-4-7.6-9-13.1c-1.1-7.1-5.5-12.4-6.6-12.4c-1,0-4.1,4.2-4.9,5.4
		c-0.7-0.2-1.4-0.3-2-0.5c-0.8-0.2-1.4-0.6-1.9-1.3c-0.5-0.8-1.4-1.7-2.6-2.7c0,0-0.1,1-0.7,2.3C27,6.3,26.6,5.9,26,5.5l-1.2,1.7
		c-0.4,0.6-1.1,1.1-1.9,1.2l0,0c-0.5,0.1-1,0.2-1.6,0.4c-0.8-1.1-3.9-5.4-4.9-5.4c-1.1,0-5.6,5.4-6.6,12.6C5,21.4,4.8,27.4,1,28.8
		c0,0,0.8,2.2,4.1,2.5c-1.8,1.4-4.6,1.5-4.6,1.5C4.4,48.2,11.9,53,28,53c16.1,0,23.6-4.8,27.5-20.2C55.5,32.8,52.8,32.8,50.9,31.3z"
		/>
	<path class="st0" d="M18.1,10c-0.8-1.1-1.7-2.8-1.7-2.8s-2.1,3.1-2.4,5.1C15.3,11.4,16.7,10.6,18.1,10z"/>
	<path class="st0" d="M39.4,7.2c0,0-0.9,1.6-1.6,2.7c1.4,0.6,2.7,1.3,4,2.2C41.4,10.2,39.4,7.2,39.4,7.2z"/>
	<path class="st0" d="M46.2,37.5c-0.2-0.6-1.3-4.1-6.2-4.9c0,0,1.6-1.3,1.7-3.4c0,0,1.1,0.5,1.2,1.6c1.2-2.3,1.1-9.1-6.1-11.1
		c1.1-0.6,1.6-0.5,1.6-0.5C31.5,17,28,22.4,28,22.4s-3.5-5.4-10.5-3.3c0,0,0.6,0,1.6,0.5c-7.2,2-7.3,8.8-6.1,11.1
		c0.2-1,1.2-1.6,1.2-1.6c0.1,2.1,1.7,3.4,1.7,3.4c-4.9,0.8-6,4.2-6.2,4.9c1-0.8,1.9-0.7,1.9-0.7C10,38.7,4.7,50,28,50
		c23,0,18.1-11.2,16.4-13.2C44.4,36.8,45.2,36.7,46.2,37.5z M31,29.1c0-0.4,0.1-1,0.5-1.4c0.3-0.4,0.8-0.6,1.3-0.6
		c0.5,0,1,0.2,1.3,0.6c0.4,0.3,0.5,0.9,0.5,1.4c0,0.7,0,1.5,0.1,2.2h-1.2c0-0.7,0.1-1.5,0.1-2.2c0.1-0.5-0.3-0.9-0.8-0.9
		c-0.5,0-0.9,0.4-0.8,0.9c0,0.7,0,1.5,0.1,2.2h-1.2C30.9,30.6,31,29.9,31,29.1z M21.3,29.1c0-0.4,0.1-1,0.5-1.4
		c0.3-0.4,0.8-0.6,1.3-0.6c0.5,0,1,0.2,1.3,0.6c0.4,0.3,0.5,0.9,0.5,1.4c0,0.7,0,1.5,0.1,2.2h-1.2c0-0.7,0.1-1.5,0.1-2.2
		c0.1-0.5-0.3-0.9-0.8-0.9c-0.5,0-0.9,0.4-0.8,0.9c0,0.7,0,1.5,0.1,2.2h-1.2C21.3,30.6,21.3,29.9,21.3,29.1z M32.2,37.8
		c-0.8,2.5-2,4.1-4.2,4.1s-3.4-1.6-4.2-4.1c-0.9,0.3-2.4,0.3-2.9-1c0.3,0.7,2.8,1,2.8-1c1.8,0.8,3.4-0.7,3.3-2.5
		c-0.3-0.3-0.6-0.6-0.6-1c0-0.8,3-0.8,3,0c0,0.4-0.3,0.7-0.6,0.9c-0.1,1.8,1.5,3.3,3.3,2.5c0,2,2.6,1.7,2.8,1
		C34.5,38.1,33.1,38.1,32.2,37.8z"/>
	<path class="st0" d="M26.8,36.2l-1.1,0.6c0,1.2,0.8,1.8,0.8,1.8L26.8,36.2z"/>
	<path class="st0" d="M30.3,36.8l-1.1-0.6l0.3,2.4C29.5,38.6,30.3,38,30.3,36.8z"/>
</g>
</svg>
