<?xml version="1.0" encoding="utf-8"?>
<!-- Generator: Adobe Illustrator 21.0.2, SVG Export Plug-In . SVG Version: 6.00 Build 0)  -->
<svg version="1.1" xmlns="http://www.w3.org/2000/svg" xmlns:xlink="http://www.w3.org/1999/xlink" x="0px" y="0px"
	 viewBox="0 0 192 96" style="enable-background:new 0 0 192 96;" xml:space="preserve">
<style type="text/css">
	.st0{fill:#FFFFFF;}
</style>
<g id="Color2">
	<path class="st0" d="M190,96H2c-1.1,0-2-0.9-2-2V2c0-1.1,0.9-2,2-2h188c1.1,0,2,0.9,2,2v92C192,95.1,191.1,96,190,96z"/>
</g>
<g id="Color1">
	<g>
		<polygon class="st0" points="165,41.5 158.5,41.5 158.5,33.8 164.3,33.8 164.3,30.6 158.5,30.6 158.5,23 165,23 165,19.5 
			154,19.5 154,45.1 165,45.1 		"/>
		<polygon class="st0" points="106.8,19.5 102.4,19.5 102.4,45.1 112.8,45.1 112.8,41.5 106.8,41.5 		"/>
		<path class="st0" d="M131.6,40.4v-21H127v20.7c0,0.5-0.2,1-0.7,1.3c-0.5,0.3-1.1,0.4-1.7,0.4c-0.7,0-1.3-0.1-1.8-0.4
			s-0.7-0.7-0.7-1.3V19.5h-4.6v21c0,1.6,0.7,2.9,2,3.7s3,1.3,5.1,1.3s3.8-0.4,5.1-1.3C130.9,43.3,131.6,42,131.6,40.4z"/>
		<polygon class="st0" points="136.2,23 140.1,23 140.1,45.1 144.5,45.1 144.5,23 148.5,23 148.5,19.5 136.2,19.5 		"/>
		<path class="st0" d="M39.9,29.4l0-4.9c0-1.6-0.7-2.9-2-3.7c-1.3-0.9-3-1.3-5.1-1.3h-7v25.6h4.5V35h2.5c0.7,0,1.3,0.2,1.8,0.5
			c0.5,0.3,0.7,0.7,0.7,1.3v8.3h4.6v-8.6c0-0.8-0.2-1.5-0.6-2.2c-0.4-0.6-0.9-1.1-1.5-1.5C39.2,32.1,39.9,30.9,39.9,29.4z M34.5,31
			c-0.5,0.3-1.1,0.4-1.8,0.4h-2.5V23h2.5c0.7,0,1.3,0.2,1.8,0.5c0.5,0.3,0.7,0.7,0.7,1.2l0,5.1C35.3,30.3,35,30.7,34.5,31z"/>
		<path class="st0" d="M96.4,40.4V24.1c0-1.6-0.7-2.9-2-3.7c-1.3-0.9-3-1.3-5.1-1.3s-3.8,0.4-5.1,1.3c-1.3,0.9-2,2.1-2,3.7v16.3
			c0,1.6,0.7,2.8,2,3.7c1.3,0.9,3,1.3,5.1,1.3s3.8-0.4,5.1-1.3C95.7,43.3,96.4,42,96.4,40.4z M91.8,40.2c0,0.5-0.2,1-0.7,1.3
			c-0.5,0.3-1.1,0.4-1.8,0.5c-0.7,0-1.3-0.1-1.8-0.4s-0.7-0.7-0.7-1.3V24.3c0-0.5,0.2-1,0.7-1.3c0.5-0.3,1.1-0.4,1.8-0.5
			c0.7,0,1.3,0.1,1.8,0.4c0.5,0.3,0.7,0.7,0.7,1.3V40.2z"/>
		<path class="st0" d="M73.9,31.8c-0.8-0.5-1.7-1-3-1.6c-1.2-0.6-2.1-1.1-2.6-1.5c-0.6-0.4-0.9-0.9-0.9-1.4v-3.1
			c0-0.5,0.2-1,0.7-1.2c0.4-0.3,1-0.4,1.7-0.4c0.7,0,1.2,0.1,1.7,0.4s0.7,0.7,0.7,1.2v3.5h4.4v-3.7c0-1.6-0.6-2.8-1.9-3.6
			c-1.3-0.8-2.9-1.3-4.9-1.3c-2,0-3.6,0.4-4.9,1.3S63,22.3,63,23.9V28c0,1,0.3,1.8,0.8,2.6c0.5,0.7,1.2,1.4,2,1.9
			c0.8,0.5,1.7,1,2.9,1.6c1.2,0.6,2.1,1.1,2.6,1.5c0.5,0.4,0.8,0.9,0.8,1.4v3.2c0,0.5-0.2,1-0.7,1.3C71,41.8,70.4,42,69.7,42
			c-0.7,0-1.2-0.1-1.7-0.4s-0.7-0.7-0.7-1.3v-3.4h-4.5v3.7c0,1.1,0.3,2,0.9,2.7c0.6,0.8,1.4,1.3,2.5,1.7c1,0.4,2.2,0.6,3.5,0.6
			c2,0,3.7-0.4,5-1.3c1.3-0.9,2-2.1,2-3.7v-4.2c0-1-0.3-1.9-0.8-2.6S74.7,32.3,73.9,31.8z"/>
		<polygon class="st0" points="57.8,41.5 51.3,41.5 51.3,33.8 57.1,33.8 57.1,30.6 51.3,30.6 51.3,23 57.8,23 57.8,19.5 46.8,19.5 
			46.8,45.1 57.8,45.1 		"/>
		<path class="st0" d="M145.2,60.9l0-5c0-1.7-0.7-3-2-3.8c-1.4-0.9-3.1-1.3-5.2-1.3h-7.2v26.4h4.6V66.7h2.5c0.7,0,1.3,0.2,1.8,0.5
			c0.5,0.3,0.8,0.7,0.8,1.3v8.6h4.8v-8.8c0-0.8-0.2-1.6-0.6-2.2c-0.4-0.6-0.9-1.2-1.6-1.6C144.5,63.7,145.2,62.5,145.2,60.9z
			 M139.7,62.6c-0.5,0.3-1.1,0.4-1.8,0.4h-2.5v-8.7h2.5c0.7,0,1.3,0.2,1.8,0.5c0.5,0.3,0.8,0.7,0.8,1.3l0,5.2
			C140.4,61.8,140.2,62.3,139.7,62.6z"/>
		<path class="st0" d="M38.3,63.5c1.2-0.7,1.8-1.8,1.8-3.3v-4.3c0-1.7-0.7-3-2-3.8c-1.4-0.9-3.1-1.3-5.2-1.3h-7v26.4H33
			c2.1,0,3.8-0.4,5.2-1.3c1.4-0.9,2-2.2,2-3.8l0-5C40.2,65.3,39.6,64.2,38.3,63.5z M30.4,54.3h2.4c0.7,0,1.3,0.2,1.8,0.5
			c0.5,0.3,0.7,0.7,0.7,1.3v4.1c0,0.6-0.2,1-0.7,1.3c-0.5,0.3-1.1,0.5-1.8,0.5h-2.4V54.3z M34.8,72.9c-0.5,0.3-1.1,0.4-1.8,0.4h-2.5
			v-8.2H33c0.7,0,1.3,0.1,1.8,0.4c0.5,0.3,0.7,0.7,0.7,1.3l0,4.7C35.5,72.2,35.2,72.6,34.8,72.9z"/>
		<path class="st0" d="M106,52c-1.4-0.9-3.1-1.3-5.2-1.3h-6.9v26.4h7c2.1,0,3.8-0.4,5.2-1.3c1.4-0.9,2-2.2,2-3.8V55.8
			C108,54.2,107.4,52.9,106,52z M103.3,71.6c0,0.6-0.2,1-0.7,1.3c-0.5,0.3-1.1,0.5-1.8,0.5h-2.2V54.3h2.2c0.7,0,1.3,0.2,1.8,0.5
			c0.5,0.3,0.7,0.7,0.8,1.3V71.6z"/>
		<path class="st0" d="M164.7,65.3c-0.6-0.8-1.2-1.4-2-1.9c-0.8-0.5-1.8-1.1-3-1.7c-1.2-0.6-2.1-1.1-2.7-1.6
			c-0.6-0.4-0.9-0.9-0.9-1.5v-3.2c0-0.6,0.2-1,0.7-1.3c0.5-0.3,1-0.4,1.7-0.4c0.7,0,1.3,0.1,1.7,0.4c0.5,0.3,0.7,0.7,0.7,1.3v3.6
			h4.6v-3.8c0-1.6-0.7-2.9-2-3.8s-3-1.3-5-1.3c-2,0-3.7,0.4-5,1.3c-1.3,0.9-1.9,2.1-1.9,3.8v4.3c0,1,0.3,1.9,0.8,2.7
			c0.6,0.8,1.2,1.4,2,1.9c0.8,0.5,1.8,1.1,3,1.7c1.3,0.7,2.2,1.2,2.7,1.6c0.6,0.4,0.8,0.9,0.8,1.4v3.3c0,0.6-0.2,1-0.7,1.3
			c-0.5,0.3-1.1,0.5-1.8,0.5c-0.7,0-1.3-0.2-1.7-0.5s-0.7-0.7-0.7-1.3v-3.5h-4.6v3.8c0,1.1,0.3,2.1,0.9,2.8c0.6,0.8,1.5,1.4,2.5,1.7
			c1.1,0.4,2.3,0.6,3.6,0.6c2.1,0,3.8-0.4,5.1-1.3c1.3-0.9,2-2.2,2-3.8v-4.4C165.6,66.9,165.3,66,164.7,65.3z"/>
		<polygon class="st0" points="114.2,77.1 125.5,77.1 125.5,73.4 118.8,73.4 118.8,65.4 124.7,65.4 124.7,62.1 118.8,62.1 
			118.8,54.4 125.5,54.4 125.5,50.7 114.2,50.7 		"/>
		<path class="st0" d="M55.8,72c0,0.6-0.2,1-0.7,1.3s-1.1,0.4-1.8,0.4c-0.7,0-1.3-0.1-1.8-0.4c-0.5-0.3-0.8-0.7-0.8-1.3V50.7h-4.8
			v21.6c0,1.7,0.7,3,2.1,3.9c1.4,0.9,3.1,1.3,5.3,1.3c2.1,0,3.9-0.4,5.3-1.3c1.4-0.9,2.1-2.2,2.1-3.9V50.7h-4.8V72z"/>
		<polygon class="st0" points="82.5,50.7 77.9,50.7 77.9,77.1 88.7,77.1 88.7,73.4 82.5,73.4 		"/>
		<rect x="66.7" y="50.7" class="st0" width="4.6" height="26.4"/>
	</g>
</g>
</svg>
