<svg xmlns="http://www.w3.org/2000/svg" viewBox="0 0 210.25 88.134"><title>resolute-logo</title><path d="M78.305,39.987a11.046,11.046,0,0,0,1.777-6.274V29.4a8.061,8.061,0,0,0-1.616-5.2,10.219,10.219,0,0,0-3.851-3.016,48.587,48.587,0,0,0-5.628-2.02,31,31,0,0,1-4.6-1.777,2.312,2.312,0,0,1-1.427-2.1V11.04A2.4,2.4,0,0,1,63.9,9.128a3.633,3.633,0,0,1,2.4-.781,3.785,3.785,0,0,1,2.532.781,2.421,2.421,0,0,1,.915,1.912v3.878L79.92,14.7V12.871a13.6,13.6,0,0,0-1.534-6.489A10.94,10.94,0,0,0,73.7,1.831,16.476,16.476,0,0,0,65.918.162a15.987,15.987,0,0,0-6.866,1.427,11.373,11.373,0,0,0-4.793,4.093,11.171,11.171,0,0,0-1.75,6.274v3.878a8.991,8.991,0,0,0,1.7,5.682,10.854,10.854,0,0,0,4.012,3.258,46.353,46.353,0,0,0,5.816,2.154,26.05,26.05,0,0,1,4.147,1.535,2.055,2.055,0,0,1,1.293,1.858v4.039a2.856,2.856,0,0,1-.889,2.181,3.281,3.281,0,0,1-2.343.835,3.884,3.884,0,0,1-2.612-.808,2.753,2.753,0,0,1-.942-2.208V30.59L52.4,30.7v2.1a13.382,13.382,0,0,0,1.562,6.489A11.06,11.06,0,0,0,58.7,43.838a12.954,12.954,0,0,0,2.02.824V86.949H71.116V44.907a14.691,14.691,0,0,0,2.343-.826A11.522,11.522,0,0,0,78.305,39.987Z"/><polygon points="187.684 4.097 164.472 1.317 164.472 9.64 170.828 9.64 170.828 44.323 181.33 44.323 181.33 9.64 187.684 9.64 187.684 4.097"/><path d="M50.247,35.921H40.176v-10.5h8.832V18.634H40.176V9.64H50.247v-8.4H45.412L29.728,3.116V43.865H29.7V76.824a9.971,9.971,0,0,0,1.8,5.9,11.89,11.89,0,0,0,4.981,3.985A17.173,17.173,0,0,0,43.6,88.134a17.18,17.18,0,0,0,7.109-1.427,12.1,12.1,0,0,0,5.008-3.985,9.875,9.875,0,0,0,1.831-5.9V43.865h-7.3ZM46.666,77.309a2.174,2.174,0,0,1-.861,1.8,3.48,3.48,0,0,1-2.208.673,3.388,3.388,0,0,1-2.154-.673,2.172,2.172,0,0,1-.862-1.8V44.323h6.085Z"/><polygon points="85.602 43.865 75.208 43.865 75.208 86.949 96.535 86.949 96.535 78.602 85.602 78.602 85.602 43.865"/><path d="M173.6,45.48a12.78,12.78,0,0,0-6.408-1.616H155.839a11.97,11.97,0,0,0,4.595-3.77,9.878,9.878,0,0,0,1.831-5.9V1.238H151.386V34.683a2.175,2.175,0,0,1-.861,1.8,3.482,3.482,0,0,1-2.209.673,3.386,3.386,0,0,1-2.153-.673,2.171,2.171,0,0,1-.862-1.8V1.238H134.421V34.2a9.972,9.972,0,0,0,1.8,5.9,11.752,11.752,0,0,0,4.568,3.77h-7.18v-7.89H122.681V1.238H112.287V43.865h-8.571a11.792,11.792,0,0,0,4.64-3.77,9.871,9.871,0,0,0,1.831-5.9V11.31a9.994,9.994,0,0,0-1.831-5.924A11.827,11.827,0,0,0,103.348,1.4a18.752,18.752,0,0,0-14.219,0,11.637,11.637,0,0,0-4.981,3.985,10.1,10.1,0,0,0-1.8,5.924V34.2a9.971,9.971,0,0,0,1.8,5.9,11.71,11.71,0,0,0,4.981,3.958,17.454,17.454,0,0,0,7.109,1.4,19.584,19.584,0,0,0,3.1-.257V86.949h15.133a12.388,12.388,0,0,0,6.544-1.777,12.7,12.7,0,0,0,4.6-4.793,13.35,13.35,0,0,0,1.67-6.57v-16.8a13.351,13.351,0,0,0-1.67-6.57,12.7,12.7,0,0,0-4.6-4.793,12.086,12.086,0,0,0-3.065-1.319h11.439V86.949H149.9v-8.4h-10.07v-10.5h8.832V61.26h-8.832V52.267H149.9V45.434a18.208,18.208,0,0,0,1.992-.259V86.949h10.448V68.692h2.908a2.7,2.7,0,0,1,2.477,1.589,7.172,7.172,0,0,1,.862,3.474V86.949h10.879V72.516q0-3.877-4.094-6.248a9.487,9.487,0,0,0,3.178-3.419,9.792,9.792,0,0,0,1.131-4.766V56.359a12.78,12.78,0,0,0-1.615-6.409A11.626,11.626,0,0,0,173.6,45.48Zm-74.292-10.8a2.1,2.1,0,0,1-.861,1.777,3.582,3.582,0,0,1-2.208.646,3.491,3.491,0,0,1-2.154-.646,2.1,2.1,0,0,1-.861-1.777V10.717a2.12,2.12,0,0,1,.861-1.75,3.394,3.394,0,0,1,2.154-.673,3.579,3.579,0,0,1,2.208.646,2.1,2.1,0,0,1,.861,1.777ZM116.031,75.37a3.389,3.389,0,0,1-.889,2.5,3.033,3.033,0,0,1-2.235.889h-3.123V52h3.123a2.988,2.988,0,0,1,2.235.916,3.485,3.485,0,0,1,.889,2.531Zm53.046-17.341a4.951,4.951,0,0,1-.835,2.881,2.42,2.42,0,0,1-2.02,1.212h-3.877V52h3.877a2.419,2.419,0,0,1,2.02,1.212,4.952,4.952,0,0,1,.835,2.881Z"/><path d="M210.25,9.64V6.8L189.73,4.342V43.7c-.439.155-.875.318-1.292.514a11.375,11.375,0,0,0-4.794,4.093,11.171,11.171,0,0,0-1.75,6.274V58.46a8.991,8.991,0,0,0,1.7,5.682A10.856,10.856,0,0,0,187.6,67.4a46.3,46.3,0,0,0,5.816,2.154,26.04,26.04,0,0,1,4.146,1.535,2.055,2.055,0,0,1,1.293,1.858v4.039a2.856,2.856,0,0,1-.889,2.181,3.28,3.28,0,0,1-2.343.835,3.887,3.887,0,0,1-2.612-.808,2.753,2.753,0,0,1-.942-2.208v-3.77l-10.286.107v2.1a13.382,13.382,0,0,0,1.562,6.489,11.06,11.06,0,0,0,4.739,4.551,16.765,16.765,0,0,0,7.863,1.67,16.174,16.174,0,0,0,6.894-1.427,11.522,11.522,0,0,0,4.847-4.093,11.046,11.046,0,0,0,1.777-6.274V72.031a8.061,8.061,0,0,0-1.616-5.2A10.219,10.219,0,0,0,204,63.818a48.587,48.587,0,0,0-5.628-2.02,31.041,31.041,0,0,1-4.6-1.777,2.312,2.312,0,0,1-1.427-2.1V53.667a2.394,2.394,0,0,1,.942-1.912,3.632,3.632,0,0,1,2.4-.781,3.783,3.783,0,0,1,2.531.781,2.421,2.421,0,0,1,.915,1.912v3.878l10.179-.216V55.5a13.6,13.6,0,0,0-1.534-6.489,10.94,10.94,0,0,0-4.686-4.551c-.1-.051-.209-.086-.308-.135h7.471v-8.4H200.178v-10.5h8.832V18.634h-8.832V9.64Z"/><path d="M24.37,64.33a9.465,9.465,0,0,0,2.639-7V54.259a9.424,9.424,0,0,0-1.616-5.439,10.572,10.572,0,0,0-4.416-3.662,13.443,13.443,0,0,0-2.475-.835h9.072V29.89q0-3.877-4.093-6.248a9.491,9.491,0,0,0,3.178-3.419,9.792,9.792,0,0,0,1.131-4.766V13.733a12.781,12.781,0,0,0-1.616-6.409,11.62,11.62,0,0,0-2.943-3.43L0,6.676V44.323H.027V86.949H16.4a13.264,13.264,0,0,0,6.059-1.319,9.709,9.709,0,0,0,4.066-3.77,10.815,10.815,0,0,0,1.454-5.628V71.6a8.866,8.866,0,0,0-.943-4.066A9.493,9.493,0,0,0,24.37,64.33ZM10.448,9.371h3.877a2.419,2.419,0,0,1,2.02,1.212,4.956,4.956,0,0,1,.835,2.881V15.4a4.955,4.955,0,0,1-.835,2.881,2.42,2.42,0,0,1-2.02,1.212H10.448Zm0,16.7h2.908a2.7,2.7,0,0,1,2.477,1.589,7.177,7.177,0,0,1,.862,3.474V44a17.638,17.638,0,0,0-2.073-.132H10.448Zm-.027,26.2h2.962a3.576,3.576,0,0,1,2.073.808,2.592,2.592,0,0,1,1.1,2.208v2.854a3.04,3.04,0,0,1-1.05,2.343,3.255,3.255,0,0,1-2.127.834H10.421Zm6.786,23.158a2.757,2.757,0,0,1-1.023,2.208,3.431,3.431,0,0,1-2.262.862h-3.5V67.884H14.03a3.27,3.27,0,0,1,2.181.862,2.907,2.907,0,0,1,1,2.316Z"/></svg>